<svg xmlns="http://www.w3.org/2000/svg" xmlns:xlink="http://www.w3.org/1999/xlink" width="2000" zoomAndPan="magnify" viewBox="0 0 1500 1499.999933" height="2000" preserveAspectRatio="xMidYMid meet" version="1.0"><defs><g/><clipPath id="370741fbc6"><path d="M 392 393 L 594 393 L 594 594 L 392 594 Z M 392 393 " clip-rule="nonzero"/></clipPath><clipPath id="48d89d7372"><path d="M 314.886719 346.796875 L 719.527344 307.945312 L 757.011719 698.402344 L 352.375 737.25 Z M 314.886719 346.796875 " clip-rule="nonzero"/></clipPath><clipPath id="d5a5264a15"><path d="M 314.886719 346.796875 L 719.527344 307.945312 L 757.011719 698.402344 L 352.375 737.25 Z M 314.886719 346.796875 " clip-rule="nonzero"/></clipPath><clipPath id="6279599335"><path d="M 328 328 L 658 328 L 658 659 L 328 659 Z M 328 328 " clip-rule="nonzero"/></clipPath><clipPath id="7d8cc96f7c"><path d="M 314.886719 346.796875 L 719.527344 307.945312 L 757.011719 698.402344 L 352.375 737.25 Z M 314.886719 346.796875 " clip-rule="nonzero"/></clipPath><clipPath id="262fe6d3fe"><path d="M 314.886719 346.796875 L 719.527344 307.945312 L 757.011719 698.402344 L 352.375 737.25 Z M 314.886719 346.796875 " clip-rule="nonzero"/></clipPath><clipPath id="6113c8b90b"><path d="M 544 491 L 744 491 L 744 709 L 544 709 Z M 544 491 " clip-rule="nonzero"/></clipPath><clipPath id="a9b809f2c2"><path d="M 314.886719 346.796875 L 719.527344 307.945312 L 757.011719 698.402344 L 352.375 737.25 Z M 314.886719 346.796875 " clip-rule="nonzero"/></clipPath><clipPath id="ce9a37e3f1"><path d="M 314.886719 346.796875 L 719.527344 307.945312 L 757.011719 698.402344 L 352.375 737.25 Z M 314.886719 346.796875 " clip-rule="nonzero"/></clipPath><clipPath id="4dbb6f3b14"><path d="M 426 432 L 574 432 L 574 586 L 426 586 Z M 426 432 " clip-rule="nonzero"/></clipPath><clipPath id="f103702d62"><path d="M 314.886719 346.796875 L 719.527344 307.945312 L 757.011719 698.402344 L 352.375 737.25 Z M 314.886719 346.796875 " clip-rule="nonzero"/></clipPath><clipPath id="5620e73fd2"><path d="M 314.886719 346.796875 L 719.527344 307.945312 L 757.011719 698.402344 L 352.375 737.25 Z M 314.886719 346.796875 " clip-rule="nonzero"/></clipPath><clipPath id="00847cb595"><path d="M 599 554 L 699 554 L 699 630 L 599 630 Z M 599 554 " clip-rule="nonzero"/></clipPath><clipPath id="5680c7ce07"><path d="M 314.886719 346.796875 L 719.527344 307.945312 L 757.011719 698.402344 L 352.375 737.25 Z M 314.886719 346.796875 " clip-rule="nonzero"/></clipPath><clipPath id="6bc16b0286"><path d="M 314.886719 346.796875 L 719.527344 307.945312 L 757.011719 698.402344 L 352.375 737.25 Z M 314.886719 346.796875 " clip-rule="nonzero"/></clipPath><clipPath id="3bbd9e91db"><path d="M 298 107 L 360 107 L 360 311.839844 L 298 311.839844 Z M 298 107 " clip-rule="nonzero"/></clipPath><clipPath id="f882a006a4"><path d="M 928 107 L 989 107 L 989 311.839844 L 928 311.839844 Z M 928 107 " clip-rule="nonzero"/></clipPath><clipPath id="650ccdd4b9"><rect x="0" width="1040" y="0" height="312"/></clipPath></defs><g clip-path="url(#370741fbc6)"><g clip-path="url(#48d89d7372)"><g clip-path="url(#d5a5264a15)"><path fill="#ffffff" d="M 502.613281 593.515625 C 447.585938 598.796875 398.453125 558.351562 393.160156 503.242188 C 387.878906 448.214844 428.324219 399.082031 483.4375 393.789062 C 538.460938 388.507812 587.605469 429.039062 592.886719 484.066406 C 594.417969 499.996094 592.109375 516.210938 586.148438 531.019531 C 585.578125 532.390625 584.539062 533.457031 583.179688 533.9375 C 578.769531 535.59375 574.175781 537.175781 569.652344 538.578125 C 565.21875 539.96875 560.589844 541.203125 555.867188 542.359375 C 556.636719 548.523438 557.753906 556.5 559.023438 566.046875 C 559.382812 568.910156 557.355469 571.566406 554.488281 571.929688 C 553.359375 572.035156 552.203125 571.882812 551.265625 571.269531 C 551.726562 573.335938 550.96875 575.515625 549.074219 576.839844 C 535.296875 586.160156 519.242188 591.917969 502.613281 593.515625 Z M 484.441406 404.238281 C 435.160156 408.96875 398.878906 452.957031 403.609375 502.238281 C 408.339844 551.515625 452.332031 587.800781 501.609375 583.066406 C 516.496094 581.640625 530.9375 576.472656 543.234375 568.175781 C 544.972656 567.042969 547.078125 567.015625 548.746094 567.910156 C 548.726562 567.738281 548.710938 567.5625 548.695312 567.386719 C 547.113281 555.503906 545.835938 545.871094 545.046875 539.445312 L 545.003906 539.011719 C 544.65625 536.320312 546.433594 533.777344 549.097656 533.167969 C 555.117188 531.800781 561.035156 530.265625 566.664062 528.496094 C 570.246094 527.359375 573.816406 526.140625 577.390625 524.917969 C 582.140625 512.160156 583.933594 498.808594 582.613281 485.050781 C 577.707031 435.789062 533.71875 399.507812 484.441406 404.238281 Z M 484.441406 404.238281 " fill-opacity="1" fill-rule="nonzero"/></g></g></g><g clip-path="url(#6279599335)"><g clip-path="url(#7d8cc96f7c)"><g clip-path="url(#262fe6d3fe)"><path fill="#ffffff" d="M 534.828125 653.597656 L 482.503906 658.621094 C 479.71875 658.890625 477.253906 657.019531 476.8125 654.25 L 472.1875 626.222656 C 459.695312 624.261719 447.65625 620.582031 436.15625 615.183594 L 416.613281 635.863281 C 414.699219 637.894531 411.558594 638.109375 409.449219 636.289062 L 368.894531 602.839844 C 366.796875 601.109375 366.320312 597.988281 367.949219 595.726562 L 384.53125 572.605469 C 377.054688 562.429688 371.144531 551.222656 366.839844 539.332031 L 338.445312 540.125 C 335.730469 540.210938 333.335938 538.15625 333.070312 535.371094 L 328.046875 483.042969 C 327.777344 480.257812 329.652344 477.792969 332.421875 477.351562 L 360.445312 472.726562 C 362.410156 460.238281 366.085938 448.199219 371.484375 436.699219 L 350.804688 417.15625 C 348.773438 415.242188 348.5625 412.097656 350.378906 409.992188 L 383.839844 369.523438 C 385.570312 367.421875 388.6875 366.949219 390.953125 368.578125 L 414.070312 385.160156 C 424.335938 377.671875 435.457031 371.773438 447.34375 367.46875 L 446.550781 339.074219 C 446.464844 336.359375 448.519531 333.964844 451.308594 333.699219 L 503.632812 328.675781 C 506.417969 328.40625 508.882812 330.277344 509.324219 333.046875 L 513.949219 361.074219 C 526.4375 363.039062 538.476562 366.714844 549.980469 372.113281 L 569.523438 351.433594 C 571.4375 349.402344 574.578125 349.1875 576.6875 351.007812 L 617.242188 384.457031 C 619.339844 386.1875 619.816406 389.308594 618.1875 391.570312 L 601.605469 414.691406 C 609.089844 424.957031 614.992188 436.078125 619.296875 447.964844 L 647.691406 447.171875 C 650.40625 447.085938 652.800781 449.140625 653.066406 451.925781 L 657.890625 502.164062 C 658.066406 503.992188 657.273438 505.824219 655.800781 506.933594 C 654.324219 508.042969 652.320312 508.234375 650.671875 507.511719 C 647.1875 506.003906 643.597656 504.328125 640.011719 502.648438 C 624.28125 514.527344 607.125 524.347656 589.035156 531.796875 C 587.089844 532.597656 585.136719 533.3125 583.359375 534.007812 C 574.546875 537.402344 565.417969 540.214844 556.136719 542.421875 C 556.90625 548.585938 558.023438 556.5625 559.292969 566.109375 C 559.867188 570.269531 560.476562 574.78125 561.101562 579.464844 C 562.632812 590.828125 563.59375 598.117188 564.554688 603.558594 C 564.941406 605.71875 563.914062 607.839844 562.089844 608.980469 C 554.777344 613.375 547.042969 617.015625 539.0625 619.890625 L 539.855469 648.285156 C 539.582031 650.945312 537.527344 653.339844 534.828125 653.597656 Z M 486.289062 647.714844 L 528.863281 643.628906 L 528.082031 616.289062 C 528.039062 614.007812 529.503906 611.847656 531.722656 611.195312 C 539.21875 608.71875 546.472656 605.558594 553.308594 601.742188 C 552.46875 596.636719 551.582031 590.132812 550.433594 580.929688 C 549.800781 576.15625 549.191406 571.644531 548.617188 567.484375 C 547.035156 555.597656 545.765625 546.054688 544.964844 539.539062 L 544.925781 539.105469 C 544.578125 536.414062 546.355469 533.871094 549.019531 533.265625 C 559.34375 530.957031 569.597656 527.949219 579.519531 524.1875 C 581.296875 523.488281 583.074219 522.789062 584.9375 522.082031 C 603.203125 514.617188 620.421875 504.53125 636.117188 492.304688 C 637.757812 491.09375 639.9375 490.882812 641.691406 491.769531 C 643.261719 492.585938 644.921875 493.390625 646.484375 494.121094 L 643 457.8125 L 615.660156 458.59375 C 613.378906 458.636719 611.21875 457.175781 610.566406 454.953125 C 606.207031 441.578125 599.5625 429.121094 590.9375 418 C 589.535156 416.203125 589.457031 413.574219 590.859375 411.679688 L 606.820312 389.414062 L 573.804688 362.179688 L 554.890625 382.097656 C 553.292969 383.742188 550.792969 384.246094 548.761719 383.210938 C 536.113281 376.871094 522.625 372.71875 508.660156 370.984375 C 506.347656 370.675781 504.511719 368.921875 504.117188 366.675781 L 499.683594 339.683594 L 457.109375 343.773438 L 457.886719 371.113281 C 457.929688 373.394531 456.46875 375.554688 454.246094 376.207031 C 440.871094 380.566406 428.414062 387.210938 417.292969 395.835938 C 415.496094 397.238281 412.867188 397.3125 411.0625 395.90625 L 388.800781 380.03125 L 361.648438 412.949219 L 381.46875 431.785156 C 383.117188 433.382812 383.621094 435.882812 382.59375 438.003906 C 376.242188 450.5625 372.089844 464.054688 370.355469 478.015625 C 370.050781 480.328125 368.292969 482.167969 366.046875 482.558594 L 339.058594 486.996094 L 343.144531 529.570312 L 370.484375 528.789062 C 372.765625 528.746094 374.925781 530.210938 375.578125 532.429688 C 379.9375 545.808594 386.582031 558.261719 395.207031 569.382812 C 396.609375 571.183594 396.6875 573.8125 395.285156 575.703125 L 379.324219 597.972656 L 412.339844 625.203125 L 431.164062 605.296875 C 432.765625 603.648438 435.265625 603.144531 437.382812 604.171875 C 449.941406 610.523438 463.433594 614.675781 477.394531 616.410156 C 479.710938 616.714844 481.546875 618.472656 481.9375 620.71875 Z M 486.289062 647.714844 " fill-opacity="1" fill-rule="nonzero"/></g></g></g><g clip-path="url(#6113c8b90b)"><g clip-path="url(#a9b809f2c2)"><g clip-path="url(#ce9a37e3f1)"><path fill="#ffffff" d="M 659.554688 708.050781 C 658.859375 708.117188 658.058594 708.019531 657.425781 707.816406 C 640.988281 702.277344 600.042969 685.824219 575.519531 652.769531 C 571.675781 647.511719 563.605469 636.691406 557.847656 620.636719 C 556.058594 615.710938 554.941406 611.425781 553.921875 605.371094 C 552.945312 599.753906 551.972656 592.378906 550.433594 580.929688 C 549.800781 576.15625 549.191406 571.644531 548.617188 567.484375 C 547.035156 555.597656 545.765625 546.054688 544.964844 539.539062 L 544.925781 539.105469 C 544.578125 536.414062 546.355469 533.871094 549.019531 533.265625 C 559.34375 530.957031 569.597656 527.949219 579.519531 524.1875 C 581.296875 523.488281 583.074219 522.789062 584.9375 522.082031 C 603.203125 514.617188 620.421875 504.53125 636.117188 492.304688 C 637.757812 491.09375 639.9375 490.882812 641.691406 491.769531 C 646.035156 493.988281 650.445312 496.023438 654.660156 497.816406 C 668.5 503.78125 682.90625 508.285156 697.59375 511.179688 C 709.863281 513.605469 722.390625 515.039062 734.992188 515.410156 C 737.722656 515.5 739.941406 517.570312 740.125 520.363281 C 740.554688 527.617188 741.488281 542.816406 742.671875 562.472656 C 744.09375 586.410156 744.378906 593.0625 742.949219 602.863281 C 740.4375 619.710938 734.582031 631.960938 731.714844 637.773438 C 713.925781 674.890625 676.859375 698.835938 661.777344 707.398438 C 661.019531 707.734375 660.339844 707.976562 659.554688 708.050781 Z M 555.867188 542.359375 C 556.636719 548.523438 557.753906 556.5 559.023438 566.046875 C 559.597656 570.207031 560.207031 574.71875 560.832031 579.402344 C 562.363281 590.765625 563.324219 598.054688 564.285156 603.5 C 565.25 608.941406 566.21875 612.628906 567.792969 617.132812 C 572.972656 631.75 580.132812 641.339844 583.96875 646.507812 C 605.757812 675.785156 641.859375 691.210938 658.589844 697.074219 C 673.898438 688.136719 706.40625 666.121094 722.226562 633.234375 C 725.007812 627.433594 730.210938 616.652344 732.519531 601.316406 C 733.867188 592.488281 733.570312 586.632812 732.183594 563.039062 C 731.253906 546.960938 730.4375 533.859375 729.910156 525.652344 C 718.347656 525.089844 706.785156 523.652344 695.5 521.398438 C 680.175781 518.300781 665.050781 513.601562 650.566406 507.347656 C 647.082031 505.835938 643.503906 504.246094 639.90625 502.484375 C 624.175781 514.363281 607.019531 524.179688 588.929688 531.628906 C 586.988281 532.429688 585.035156 533.144531 583.257812 533.84375 C 574.277344 537.34375 565.148438 540.152344 555.867188 542.359375 Z M 555.867188 542.359375 " fill-opacity="1" fill-rule="nonzero"/></g></g></g><g clip-path="url(#4dbb6f3b14)"><g clip-path="url(#f103702d62)"><g clip-path="url(#5620e73fd2)"><path fill="#ffffff" d="M 556.046875 585.398438 C 554.742188 585.523438 553.386719 585.125 552.25 584.269531 L 495.648438 538.386719 C 476.777344 544.066406 456.101562 539.199219 442.238281 525.679688 C 422.070312 506 426.796875 479.273438 427.394531 476.316406 C 427.75 474.527344 429.015625 473.085938 430.714844 472.484375 C 432.414062 471.882812 434.285156 472.140625 435.707031 473.234375 C 442.433594 478.300781 448.851562 483.835938 455.15625 489.117188 C 457.550781 491.171875 459.945312 493.226562 462.417969 495.183594 C 464.328125 496.757812 466.769531 497.492188 469.285156 497.160156 C 471.800781 496.832031 473.964844 495.570312 475.347656 493.503906 L 485.570312 479.167969 C 488.355469 475.210938 487.582031 469.921875 483.695312 466.957031 L 456.382812 446.03125 C 454.863281 444.859375 454.15625 442.996094 454.328125 441.132812 C 454.589844 439.261719 455.839844 437.648438 457.53125 436.960938 C 478.929688 428.316406 503.496094 433.425781 518.691406 449.804688 C 534.867188 467.316406 532.960938 489.554688 531.492188 498.042969 L 571.316406 529.367188 C 573.597656 531.167969 574.003906 534.46875 572.199219 536.75 C 570.398438 539.03125 567.097656 539.4375 564.816406 537.636719 L 522.425781 504.273438 C 520.804688 502.9375 520.070312 500.808594 520.574219 498.738281 C 520.832031 497.75 527.105469 474.300781 510.933594 456.875 C 500.933594 446.058594 485.71875 441.371094 470.941406 443.929688 L 490.003906 458.53125 C 498.351562 464.9375 500.089844 476.632812 494.050781 485.117188 L 483.933594 499.621094 C 480.84375 504.046875 475.929688 506.890625 470.636719 507.578125 C 465.257812 508.269531 459.832031 506.679688 455.71875 503.210938 C 453.238281 501.164062 450.84375 499.109375 448.449219 497.054688 C 444.722656 493.898438 440.984375 490.652344 437.175781 487.59375 C 437.359375 495.921875 439.597656 508.273438 449.777344 518.191406 C 461.507812 529.628906 479.257812 533.285156 495.136719 527.542969 C 496.835938 526.941406 498.800781 527.277344 500.222656 528.371094 L 559.105469 576.054688 C 561.386719 577.855469 561.703125 581.164062 559.902344 583.445312 C 558.78125 584.609375 557.441406 585.265625 556.046875 585.398438 Z M 556.046875 585.398438 " fill-opacity="1" fill-rule="nonzero"/></g></g></g><g clip-path="url(#00847cb595)"><g clip-path="url(#5680c7ce07)"><g clip-path="url(#6bc16b0286)"><path fill="#ffffff" d="M 639.695312 629.296875 C 638.472656 629.414062 637.125 629.105469 636.078125 628.238281 L 601.816406 602.707031 C 599.457031 601 599.054688 597.699219 600.757812 595.339844 C 602.464844 592.980469 605.765625 592.574219 608.125 594.28125 L 638.410156 616.855469 L 688.882812 556.828125 C 690.78125 554.625 694.089844 554.308594 696.292969 556.207031 C 698.496094 558.101562 698.8125 561.410156 696.914062 563.613281 L 643.207031 627.464844 C 642.261719 628.609375 641 629.171875 639.695312 629.296875 Z M 639.695312 629.296875 " fill-opacity="1" fill-rule="nonzero"/></g></g></g><g transform="matrix(1, 0, 0, 1, 257, 634)"><g clip-path="url(#650ccdd4b9)"><g fill="#ffffff" fill-opacity="1"><g transform="translate(0.42569, 205.60259)"><g><path d="M 49 -151.15625 L 49 -105.953125 L 3.890625 -105.953125 L 3.890625 -151.15625 Z M 101.875 -151.15625 L 101.875 -105.953125 L 56.765625 -105.953125 L 56.765625 -151.15625 Z M 109.640625 -0.203125 L 3.890625 -0.203125 L 3.890625 -98.28125 L 101.875 -98.28125 L 101.875 -45.40625 L 109.640625 -45.40625 Z M 56.765625 -45.40625 L 56.765625 -53.078125 L 49 -53.078125 L 49 -45.40625 Z M 56.765625 -45.40625 "/></g></g></g><g fill="#ffffff" fill-opacity="1"><g transform="translate(102.290705, 205.60259)"><g><path d="M 52.875 -151.15625 L 52.875 -105.953125 L 7.671875 -105.953125 L 7.671875 -151.15625 Z M 7.671875 -45.40625 L 7.671875 -98.28125 L 52.875 -98.28125 L 52.875 -0.203125 L 0 -0.203125 L 0 -45.40625 Z M 7.671875 -45.40625 "/></g></g></g><g fill="#ffffff" fill-opacity="1"><g transform="translate(159.048334, 205.60259)"><g><path d="M 56.765625 -0.203125 L 3.890625 -0.203125 L 3.890625 -204.03125 L 49.09375 -204.03125 L 49.09375 -45.40625 L 56.765625 -45.40625 Z M 56.765625 -0.203125 "/></g></g></g><g fill="#ffffff" fill-opacity="1"><g transform="translate(208.138711, 205.60259)"><g><path d="M 0 -45.40625 L 49.09375 -45.40625 L 49.09375 -0.203125 L 0 -0.203125 Z M 0 -45.40625 "/></g></g></g><g fill="#ffffff" fill-opacity="1"><g transform="translate(253.544814, 205.60259)"><g><path d="M 0 -45.40625 L 49.09375 -45.40625 L 49.09375 -0.203125 L 0 -0.203125 Z M 0 -45.40625 "/></g></g></g><g clip-path="url(#3bbd9e91db)"><g fill="#ffffff" fill-opacity="1"><g transform="translate(298.950918, 205.60259)"><g><path d="M 7.671875 -45.40625 L 7.671875 -98.28125 L 52.875 -98.28125 L 52.875 -45.40625 L 60.546875 -45.40625 L 60.546875 -0.203125 L 0 -0.203125 L 0 -45.40625 Z M 7.671875 52.671875 L 7.671875 7.46875 L 52.875 7.46875 L 52.875 52.671875 Z M 7.671875 105.546875 L 7.671875 60.34375 L 52.875 60.34375 L 52.875 105.546875 Z M 7.671875 105.546875 "/></g></g></g></g><g fill="#ffffff" fill-opacity="1"><g transform="translate(351.825136, 205.60259)"><g><path d="M 52.875 -45.40625 L 60.640625 -45.40625 L 60.640625 -98.28125 L 231.515625 -98.28125 L 231.515625 -45.40625 L 239.28125 -45.40625 L 239.28125 -0.203125 L 0 -0.203125 L 0 -45.40625 L 7.765625 -45.40625 L 7.765625 -98.28125 L 52.875 -98.28125 Z M 186.40625 -53.078125 L 102.671875 -53.078125 L 102.671875 -45.40625 L 186.40625 -45.40625 Z M 186.40625 -53.078125 "/></g></g></g><g fill="#ffffff" fill-opacity="1"><g transform="translate(583.33651, 205.60259)"><g><path d="M 7.671875 -204.03125 L 52.875 -204.03125 L 52.875 -0.203125 L 0 -0.203125 L 0 -45.40625 L 7.671875 -45.40625 Z M 7.671875 -204.03125 "/></g></g></g><g fill="#ffffff" fill-opacity="1"><g transform="translate(640.094177, 205.60259)"><g><path d="M 49.09375 -0.203125 L 3.890625 -0.203125 L 3.890625 -204.03125 L 49.09375 -204.03125 Z M 49.09375 -0.203125 "/></g></g></g><g fill="#ffffff" fill-opacity="1"><g transform="translate(693.06794, 205.60259)"><g/></g></g><g fill="#ffffff" fill-opacity="1"><g transform="translate(700.735217, 205.60259)"><g><path d="M 129.546875 -151.15625 L 129.546875 -105.953125 L 84.34375 -105.953125 L 84.34375 -151.15625 Z M 182.421875 -151.15625 L 182.421875 -105.953125 L 137.21875 -105.953125 L 137.21875 -151.15625 Z M 3.890625 -0.203125 L 3.890625 -98.28125 L 137.3125 -98.28125 L 137.3125 -53.078125 L 49 -53.078125 L 49 -45.40625 L 182.53125 -45.40625 L 182.53125 -98.28125 L 227.640625 -98.28125 L 227.640625 -45.40625 L 235.3125 -45.40625 L 235.3125 -0.203125 Z M 3.890625 -0.203125 "/></g></g></g><g clip-path="url(#f882a006a4)"><g fill="#ffffff" fill-opacity="1"><g transform="translate(928.363243, 205.60259)"><g><path d="M 7.671875 -45.40625 L 7.671875 -98.28125 L 52.875 -98.28125 L 52.875 -45.40625 L 60.546875 -45.40625 L 60.546875 -0.203125 L 0 -0.203125 L 0 -45.40625 Z M 7.671875 52.671875 L 7.671875 7.46875 L 52.875 7.46875 L 52.875 52.671875 Z M 7.671875 105.546875 L 7.671875 60.34375 L 52.875 60.34375 L 52.875 105.546875 Z M 7.671875 105.546875 "/></g></g></g></g><g fill="#ffffff" fill-opacity="1"><g transform="translate(981.237387, 205.60259)"><g><path d="M 7.671875 -45.40625 L 7.671875 -98.28125 L 52.875 -98.28125 L 52.875 -0.203125 L 0 -0.203125 L 0 -45.40625 Z M 7.671875 52.671875 L 7.671875 7.46875 L 52.875 7.46875 L 52.875 52.671875 Z M 7.671875 52.671875 "/></g></g></g></g></g></svg>